<svg xmlns="http://www.w3.org/2000/svg" viewBox="0 0 512 512" role="img" aria-label="Lia">
  <rect width="512" height="512" rx="112" fill="#fff7fb"/>
  <circle cx="256" cy="256" r="210" fill="#ffe1ef" stroke="#ffadd0" stroke-width="18"/>
  <circle cx="186" cy="170" r="23" fill="#ffffff" opacity="0.9"/>
  <circle cx="330" cy="356" r="15" fill="#ffffff" opacity="0.78"/>
  <path d="M144 338c54-96 95-151 130-188 15-16 39-6 38 16-2 47-11 93-28 139 27-8 55-20 84-36 20-11 40 11 27 30-36 52-90 82-162 91-23 3-34-22-25-40 23-48 37-90 42-126-25 32-53 75-85 131-11 19-31 3-21-17z" fill="#9b5572"/>
  <path d="M160 346c50-86 87-136 119-170 7-8 18-3 18 8-1 43-12 92-34 149 37-8 75-23 113-44 9-5 18 5 12 13-34 47-83 72-151 80-9 1-14-8-10-16 29-59 45-112 48-159-31 36-68 91-112 167-4 8-12-1-3-28z" fill="#ffffff" opacity="0.72"/>
</svg>
